<svg xmlns="http://www.w3.org/2000/svg" xmlns:xlink="http://www.w3.org/1999/xlink" width="375.294" height="605.089" viewBox="0 0 375.294 605.089"><defs><clipPath id="a"><rect width="375.294" height="605.089" fill="none"/></clipPath><linearGradient id="b" x1="0.5" x2="0.5" y2="0.637" gradientUnits="objectBoundingBox"><stop offset="0" stop-color="#a6d3ed"/><stop offset="0.441" stop-color="#f9c1c6"/><stop offset="1" stop-color="#ffffbc"/></linearGradient><linearGradient id="c" x1="0.5" x2="0.5" y2="1.133" gradientUnits="objectBoundingBox"><stop offset="0" stop-color="#43ca9b"/><stop offset="0.339" stop-color="#58e19a"/><stop offset="0.74" stop-color="#6bf79a"/><stop offset="1" stop-color="#73ff9a"/></linearGradient><linearGradient id="d" x1="0.32" y1="-0.12" x2="0.538" y2="0.85" xlink:href="#c"/><linearGradient id="e" x1="0.5" y1="1.123" x2="0.5" gradientUnits="objectBoundingBox"><stop offset="0" stop-color="#75fffd"/><stop offset="0.532" stop-color="#b7fffe"/><stop offset="1" stop-color="#edffff"/></linearGradient><linearGradient id="f" x1="0.5" y1="0" x2="0.5" y2="1" xlink:href="#c"/><linearGradient id="g" x1="0.742" y1="0.544" x2="0.649" y2="1.543" gradientUnits="objectBoundingBox"><stop offset="0" stop-color="#43ca9b"/><stop offset="0.201" stop-color="#5bd8a2"/><stop offset="0.541" stop-color="#7eedad"/><stop offset="0.82" stop-color="#94fab4"/><stop offset="1" stop-color="#9cffb7"/></linearGradient></defs><g clip-path="url(#a)"><g transform="translate(0.232)"><rect width="375" height="599" fill="url(#b)"/><g transform="translate(-6.834 237.111)"><g transform="translate(6.834 18.948)"><ellipse cx="186.922" cy="174.515" rx="186.922" ry="174.515" fill="#fff2a8" opacity="0.2"/><ellipse cx="139.824" cy="127.418" rx="139.824" ry="127.418" transform="translate(47.098 47.098)" fill="#fff2a8" opacity="0.2"/><ellipse cx="92.229" cy="79.822" rx="92.229" ry="79.822" transform="translate(94.693 94.693)" fill="#fff2a8" opacity="0.2"/><circle cx="57.292" cy="57.292" r="57.292" transform="translate(129.63 117.224)" fill="#ffffd3"/></g><g transform="translate(6.601 174.959)"><g transform="translate(0)"><path d="M657.228,1423.2V1241.33C522.674,1213.58,423.25,1302.3,423.25,1418.7c4.376.439,8.843,2.227,13.4,4.5Z" transform="translate(-281.934 -1236.21)" fill="url(#c)"/><path d="M127.02,1428.884c-7.9-16.2-17.1-35.446-10.758-39.62,82.766-54.513,184.817-42.161,184.817-77.315,0-18.489-157.374-89.855-300.018-60.013v176.948Z" transform="translate(-1.06 -1241.893)" fill="url(#d)"/></g><g transform="translate(61.788 50.799)"><path d="M223.4,1524.8H395.595c-37.938-13.373-74.518-41.662-71.758-56.569,4.76-25.7,128.334-31.534,128.331-58.189,0-12.647-39.5-21.433-51.536-21.433,0,0,22.85,11.927,22.85,19.257,0,20.2-238.816,20.2-238.816,76.575,0,6.37,3.35,13.068,9.118,19.883A180.281,180.281,0,0,0,223.4,1524.8Z" transform="translate(-184.667 -1388.608)" fill="url(#e)"/><path d="M184.667,1522.954c0-56.375,238.816-56.375,238.816-76.575C423.483,1462.6,184.667,1443.5,184.667,1522.954Z" transform="translate(-184.667 -1427.122)" fill="#43ca9b"/></g></g><g transform="translate(21.43)"><g transform="translate(264.755 115.296)"><path d="M869.543,1218.75l-1.124-12.239h-5.4l-.758,13.5C864.667,1219.553,867.09,1219.122,869.543,1218.75Z" transform="translate(-854.289 -1156.747)" fill="#cfb599"/><path d="M849.774,1060.323c2.916-4.146,6.007-4.326,7.548.6a107.328,107.328,0,0,1,4.79,34.266c-.2,9.622-3.494,16.454-13.1,16.387-8-.056-10.43-3.886-10.649-14.273A62.727,62.727,0,0,1,849.774,1060.323Z" transform="translate(-838.351 -1057.219)" fill="#aed7b1"/></g><g transform="translate(305.095 90.726)"><path d="M1002.8,1203.8h-5.4l-1.472,26.238c-.242,4.318,9.667,4.151,9.27-.165Z" transform="translate(-983.636 -1130.371)" fill="#b89977"/><path d="M976.827,988.333c4.532-6.443,9.337-6.724,11.731.929A166.823,166.823,0,0,1,996,1042.518c-.317,14.955-5.431,25.573-20.358,25.469-12.439-.087-16.211-6.04-16.551-22.183A97.493,97.493,0,0,1,976.827,988.333Z" transform="translate(-959.073 -983.509)" fill="url(#f)"/></g><path d="M138.163,811.331c-2.656-4.231-6.744-7.164-11.514-9.171,10.428-13.93-9.457-94.346-36.742-90.708-14.229,1.9-17.178,17.975-17.35,31.222-28.875,1.976-32.684,54.3-20.344,75.088-9.132,12.914-8.292,30.517-1.053,44.443C103.611,963.106,154.126,836.751,138.163,811.331Z" transform="translate(-45.547 -711.332)" fill="url(#g)"/><path d="M129.278,1005.584c4.21,7.465,8.5,13.587,12.768,23.641l3.037-71.039c.447-9.768,4.165-9.777,4.583,0l1.731,40.479a111.816,111.816,0,0,1,6.9-13.756,1.149,1.149,0,0,1,2.048,1.028c-11.7,27.311-7.509,33.612-4.953,106.253.435,11.092-16.514,11.042-16.042,0,.777-50.012,7.1-41.565-12.126-85.584A1.147,1.147,0,0,1,129.278,1005.584Z" transform="translate(-99.931 -871.015)" fill="#9e8263"/></g></g></g></g></svg>